<svg width="300" height="300" viewBox="0 0 200 235" xmlns="http://www.w3.org/2000/svg">

    <style>
        text {
            font-family: -apple-system, BlinkMacSystemFont, "Segoe UI", Roboto, Helvetica, Arial, sans-serif, "Apple Color Emoji", "Segoe UI Emoji", "Segoe UI Symbol";
        }
    </style>

    <rect fill="#2a71a5" width="200" height="25" />
    <rect fill="#7da7d9" y="25" width="200" height="210" />
    <rect fill="white" width="190" height="105" y="30" x="5" />
    <rect fill="#eee" width="190" height="90" y="140" x="5" />

    <text font-size="16" x="10" y="19" fill="#eee">
      Reorder
    </text>

    <text font-size="12" x="10" y="155" fill="#333">
      Removed Authors
    </text>

    <g transform="translate(9, 35)">
      <rect fill="white" width="130" height="20" stroke="#888" stroke-width="1" />
      <path fill="none" d="M20 0 v 20" stroke="#888" />
      <path fill="none" d="M5 5 h 10" stroke="#aaa" />
      <path fill="none" d="M5 10 h 10" stroke="#aaa" />
      <path fill="none" d="M5 15 h 10" stroke="#aaa" />
      <path fill="none" d="M110 0 v 20" stroke="#888" />
      <path fill="none" d="M115 5 l 10 10" stroke="#aaa" />
      <path fill="none" d="M125 5 l -10 10" stroke="#aaa" />
      <text x="25" y="15" font-size="13" fill="#555">G Tobias</text>
    </g>


    <g transform="translate(9, 60)">
      <rect fill="white" width="130" height="20" stroke="#888" stroke-width="1" />
      <path fill="none" d="M20 0 v 20" stroke="#888" />
      <path fill="none" d="M5 5 h 10" stroke="#aaa" />
      <path fill="none" d="M5 10 h 10" stroke="#aaa" />
      <path fill="none" d="M5 15 h 10" stroke="#aaa" />
      <path fill="none" d="M110 0 v 20" stroke="#888" />
      <path fill="none" d="M115 5 l 10 10" stroke="#aaa" />
      <path fill="none" d="M125 5 l -10 10" stroke="#aaa" />
      <text x="25" y="15" font-size="13" fill="#555">K Chen</text>
    </g>

    <g transform="translate(9, 85)">
      <rect fill="white" width="130" height="20" stroke="#888" stroke-width="1" />
      <path fill="none" d="M20 0 v 20" stroke="#888" />
      <path fill="none" d="M5 5 h 10" stroke="#aaa" />
      <path fill="none" d="M5 10 h 10" stroke="#aaa" />
      <path fill="none" d="M5 15 h 10" stroke="#aaa" />
      <path fill="none" d="M110 0 v 20" stroke="#888" />
      <path fill="none" d="M115 5 l 10 10" stroke="#aaa" />
      <path fill="none" d="M125 5 l -10 10" stroke="#aaa" />
      <text x="25" y="15" font-size="13" fill="#555">B Park</text>
    </g>

    <g transform="translate(9, 110)">
      <rect fill="white" width="130" height="20" stroke="#888" stroke-width="1" />
      <path fill="none" d="M20 0 v 20" stroke="#888" />
      <path fill="none" d="M5 5 h 10" stroke="#aaa" />
      <path fill="none" d="M5 10 h 10" stroke="#aaa" />
      <path fill="none" d="M5 15 h 10" stroke="#aaa" />
      <path fill="none" d="M110 0 v 20" stroke="#888" />
      <path fill="none" d="M115 5 l 10 10" stroke="#aaa" />
      <path fill="none" d="M125 5 l -10 10" stroke="#aaa" />
      <text x="25" y="15" font-size="13" fill="#555">M Machiela</text>
    </g>


    <g transform="translate(9, 160)">
      <rect fill="white" width="130" height="20" stroke="#888" stroke-width="1" />
      <path fill="none" d="M20 0 v 20" stroke="#888" />
      <path fill="none" d="M5 5 h 10" stroke="#aaa" />
      <path fill="none" d="M5 10 h 10" stroke="#aaa" />
      <path fill="none" d="M5 15 h 10" stroke="#aaa" />
      <path fill="none" d="M110 0 v 20" stroke="#888" />
      <path fill="none" d="M120 5 v 10" stroke="#aaa" />
      <path fill="none" d="M115 10 h 10" stroke="#aaa" />
      <text x="25" y="15" font-size="13" fill="#555">S Pan</text>
    </g>

    <path fill="#888" stroke="#888" d="M 145 70 l 10 -5 v 10" />
    <path fill="#888" stroke="#888" d="M 145 95 l 10 -5 v 10" />
    <path fill="none" stroke="#888" stroke-width="5" d="M 155 70 h 10 v 25 h -10" />

</svg>